<svg width="24" height="24" xmlns="http://www.w3.org/2000/svg">

 <g>
  <title>background</title>
  <rect fill="none" id="canvas_background" height="602" width="802" y="-1" x="-1"/>
 </g>
 <g>
  <title>Layer 1</title>
  <g id="svg_1">
   <path fill="#ffffff" id="svg_2" d="m12,2c-5.5,0 -10,4.5 -10,10c0,5 3.7,9.1 8.4,9.9l0,-7l-2.5,0l0,-2.9l2.5,0l0,-2.2c0,-2.5 1.5,-3.9 3.8,-3.9c1.1,0 2.2,0.2 2.2,0.2l0,2.5l-1.3,0c-1.2,0 -1.6,0.8 -1.6,1.6l0,1.8l2.8,0l-0.4,2.9l-2.3,0l0,7c4.7,-0.8 8.4,-4.9 8.4,-9.9c0,-5.5 -4.5,-10 -10,-10z"/>
  </g>
 </g>
</svg>