<svg width="23.999999999999996" height="23.999999999999996" xmlns="http://www.w3.org/2000/svg">

 <g>
  <title>background</title>
  <rect fill="none" id="canvas_background" height="602" width="802" y="-1" x="-1"/>
 </g>
 <g>
  <title>Layer 1</title>
  <g id="svg_1">
   <path fill="#ffffff" id="svg_2" d="m12,2c-5.523,0 -10,4.477 -10,10c0,4.419 2.865,8.166 6.839,9.489c0.5,0.09 0.682,-0.218 0.682,-0.484c0,-0.236 -0.009,-0.866 -0.014,-1.699c-2.782,0.602 -3.369,-1.34 -3.369,-1.34c-0.455,-1.157 -1.11,-1.465 -1.11,-1.465c-0.909,-0.62 0.069,-0.608 0.069,-0.608c1.004,0.071 1.532,1.03 1.532,1.03c0.891,1.529 2.341,1.089 2.91,0.833c0.091,-0.647 0.349,-1.086 0.635,-1.337c-2.22,-0.251 -4.555,-1.111 -4.555,-4.943c0,-1.091 0.39,-1.984 1.03,-2.682c-0.103,-0.254 -0.447,-1.27 0.097,-2.646c0,0 0.84,-0.269 2.75,1.025a9.548,9.548 0 0 1 2.504,-0.337c0.85,0.004 1.705,0.114 2.504,0.336c1.909,-1.294 2.748,-1.025 2.748,-1.025c0.546,1.376 0.202,2.394 0.1,2.646c0.64,0.699 1.026,1.591 1.026,2.682c0,3.841 -2.337,4.687 -4.565,4.935c0.359,0.307 0.679,0.917 0.679,1.852c0,1.335 -0.012,2.415 -0.012,2.741c0,0.269 0.18,0.579 0.688,0.481a9.997,9.997 0 0 0 6.832,-9.484c0,-5.523 -4.477,-10 -10,-10z"/>
  </g>
 </g>
</svg>