<svg width="23.999999999999996" height="23.999999999999996" xmlns="http://www.w3.org/2000/svg">

 <g>
  <title>background</title>
  <rect fill="none" id="canvas_background" height="602" width="802" y="-1" x="-1"/>
 </g>
 <g>
  <title>Layer 1</title>
  <g id="svg_1">
   <path fill="#ffffff" id="svg_2" d="m19,3l-14,0a2,2 0 0 0 -2,2l0,14a2,2 0 0 0 2,2l14,0a2,2 0 0 0 2,-2l0,-14a2,2 0 0 0 -2,-2zm-2.534,6.71c0.004,0.099 0.007,0.198 0.007,0.298c0,3.045 -2.318,6.556 -6.556,6.556a6.52,6.52 0 0 1 -3.532,-1.035a4.626,4.626 0 0 0 3.412,-0.954a2.307,2.307 0 0 1 -2.152,-1.6a2.295,2.295 0 0 0 1.04,-0.04a2.306,2.306 0 0 1 -1.848,-2.259l0,-0.029c0.311,0.173 0.666,0.276 1.044,0.288a2.303,2.303 0 0 1 -0.713,-3.076a6.54,6.54 0 0 0 4.749,2.407a2.305,2.305 0 0 1 3.926,-2.101a4.602,4.602 0 0 0 1.463,-0.559a2.31,2.31 0 0 1 -1.013,1.275c0.466,-0.056 0.91,-0.18 1.323,-0.363c-0.31,0.461 -0.7,0.867 -1.15,1.192z"/>
  </g>
 </g>
</svg>