<?xml version="1.0" encoding="UTF-8" standalone="no"?>
<!-- Created with Inkscape (http://www.inkscape.org/) -->

<svg
   xmlns:dc="http://purl.org/dc/elements/1.1/"
   xmlns:cc="http://creativecommons.org/ns#"
   xmlns:rdf="http://www.w3.org/1999/02/22-rdf-syntax-ns#"
   xmlns:svg="http://www.w3.org/2000/svg"
   xmlns="http://www.w3.org/2000/svg"
   xmlns:sodipodi="http://sodipodi.sourceforge.net/DTD/sodipodi-0.dtd"
   xmlns:inkscape="http://www.inkscape.org/namespaces/inkscape"
   width="49.999996"
   height="50.01128"
   viewBox="0 0 13.229166 13.232151"
   version="1.1"
   id="svg4048"
   inkscape:version="0.92.3 (2405546, 2018-03-11)"
   sodipodi:docname="vocabs.svg">
  <defs
     id="defs4042" />
  <sodipodi:namedview
     id="base"
     pagecolor="#ffffff"
     bordercolor="#666666"
     borderopacity="1.0"
     inkscape:pageopacity="0.0"
     inkscape:pageshadow="2"
     inkscape:zoom="7.9195959"
     inkscape:cx="33.907425"
     inkscape:cy="23.023918"
     inkscape:document-units="px"
     inkscape:current-layer="layer1"
     showgrid="false"
     fit-margin-top="0"
     fit-margin-left="0"
     fit-margin-right="0"
     fit-margin-bottom="0"
     inkscape:window-width="1366"
     inkscape:window-height="713"
     inkscape:window-x="0"
     inkscape:window-y="27"
     inkscape:window-maximized="1"
     units="px" />
  <metadata
     id="metadata4045">
    <rdf:RDF>
      <cc:Work
         rdf:about="">
        <dc:format>image/svg+xml</dc:format>
        <dc:type
           rdf:resource="http://purl.org/dc/dcmitype/StillImage" />
        <dc:title></dc:title>
      </cc:Work>
    </rdf:RDF>
  </metadata>
  <g
     inkscape:label="Layer 1"
     inkscape:groupmode="layer"
     id="layer1"
     transform="translate(45.81071,-173.86765)">
    <g
       id="g3998"
       transform="matrix(0.09765625,0,0,0.09765625,-29.008485,150.07568)">
      <path
         style="fill:#fefefe;stroke-width:0.26458332"
         d="m -172.05478,311.36309 v -67.73333 h 67.73333 67.73333 v 67.73333 67.73333 h -67.73333 -67.73333 z"
         id="path4020"
         inkscape:connector-curvature="0" />
      <path
         style="fill:#e0e5e8;stroke-width:0.26458332"
         d="m -151.04989,378.59245 c -0.45278,-0.2761 -1.10762,-0.90073 -1.45521,-1.38808 l -0.63197,-0.88607 -0.0679,-57.43576 -0.0679,-57.43575 0.61104,-1.1555 c 0.41822,-0.79087 0.9746,-1.34776 1.76318,-1.76476 1.1363,-0.60089 1.27435,-0.6093 10.04021,-0.61114 l 8.88807,-0.002 0.46172,-1.91636 c 0.53612,-2.22511 1.04524,-3.01348 2.47358,-3.83024 1.00529,-0.57485 1.248,-0.59108 8.90481,-0.59531 l 7.87135,-0.004 v -0.74662 c 0,-2.50117 2.56867,-5.87292 5.14036,-6.74747 1.66438,-0.566 3.9299,-0.566 5.59428,0 2.571692,0.87455 5.14036,4.2463 5.14036,6.74747 v 0.74662 l 7.871353,0.004 c 7.656811,0.004 7.899522,0.0205 8.904811,0.59531 1.428332,0.81676 1.937457,1.60513 2.473571,3.83024 l 0.461722,1.91637 8.888073,0.002 c 8.765863,0.002 8.903914,0.0103 10.040212,0.61114 0.788575,0.41701 1.344957,0.97389 1.763181,1.76476 l 0.611042,1.1555 -0.06792,57.45636 -0.06792,57.45637 -0.741281,0.97185 c -1.462362,1.91723 2.686439,1.76516 -48.127354,1.76406 -44.55828,-10e-4 -45.87543,-0.0152 -46.67543,-0.50298 z m 87.474271,-63.3929 v -51.99062 h -5.929658 -5.929659 l 0.389535,1.65364 c 0.214246,0.90951 0.456695,1.98107 0.538774,2.38125 l 0.149238,0.72761 h -29.964061 -29.96406 l 0.14924,-0.72761 c 0.0821,-0.40018 0.32452,-1.47174 0.53877,-2.38125 l 0.38954,-1.65364 h -5.92966 -5.92966 v 51.99062 51.99062 h 40.74583 40.745831 z m -76.136821,34.59427 0.0691,-10.78177 h 10.71562 10.71563 l 0.0691,10.78177 0.0691,10.78177 h -10.85385 -10.85385 z m 25.60141,7.47448 v -1.7198 h 22.489579 22.489583 v 1.7198 1.71979 h -22.489583 -22.489579 z m 0.10896,-6.05081 c -0.0765,-0.19925 -0.10249,-1.00292 -0.0579,-1.78594 l 0.0812,-1.42367 22.423435,-0.0676 22.423437,-0.0676 v 1.85358 1.85357 h -22.365594 c -18.686848,0 -22.388458,-0.0596 -22.504608,-0.36226 z m -0.10896,-8.89815 v -1.85208 h 7.80521 7.805203 v 1.85208 1.85208 h -7.805203 -7.80521 z m -25.54257,-14.08659 c -0.0705,-0.18385 -0.0971,-5.037 -0.059,-10.78478 l 0.0693,-10.4505 h 10.71562 10.71563 v 10.71562 10.71562 l -10.65663,0.0692 c -8.39245,0.0545 -10.68388,-0.002 -10.7849,-0.26512 z m 25.65153,-1.62151 c -0.0765,-0.19925 -0.10249,-1.00292 -0.0579,-1.78594 l 0.0812,-1.42367 22.423435,-0.0676 22.423437,-0.0676 v 1.85358 1.85358 h -22.365594 c -18.686848,0 -22.388458,-0.0596 -22.504608,-0.36227 z m 0,-7.40833 c -0.0765,-0.19925 -0.10249,-1.00292 -0.0579,-1.78594 l 0.0812,-1.42367 22.423435,-0.0676 22.423437,-0.0676 v 1.85357 1.85358 h -22.365594 c -18.686848,0 -22.388458,-0.0596 -22.504608,-0.36226 z m -0.10896,-8.89416 v -1.85608 h 7.81729 7.817301 l -0.07824,1.78594 -0.07823,1.78594 -7.739061,0.0701 -7.73906,0.0701 z m -25.66458,-24.74253 v -10.71563 h 10.84791 10.84792 v 10.71563 10.71562 h -10.84792 -10.84791 z m 25.77354,9.03044 c -0.0765,-0.19925 -0.10249,-1.00292 -0.0579,-1.78594 l 0.0812,-1.42367 22.423435,-0.0676 22.423437,-0.0676 v 1.85358 1.85357 h -22.365594 c -18.686848,0 -22.388458,-0.0596 -22.504608,-0.36226 z m -0.10896,-9.03044 v -1.7198 h 22.489579 22.489583 v 1.7198 1.71979 h -22.489583 -22.489579 z m 0,-7.54462 v -1.85608 l 7.73906,0.0701 7.739061,0.0701 0.07823,1.78594 0.07824,1.78593 h -7.817301 -7.81729 z m 11.57794,-23.27791 c 1.80374,-1.09976 2.41393,-3.28224 1.38807,-4.96479 -1.5219,-2.49611 -4.83096,-2.49611 -6.35286,0 -1.88571,3.09281 1.87198,6.8505 4.96479,4.96479 z"
         id="path4018"
         inkscape:connector-curvature="0" />
      <path
         style="fill:#f8dda7;stroke-width:0.26458332"
         d="m -150.35895,378.90667 c -0.98067,-0.37136 -1.95319,-1.29996 -2.40627,-2.29762 -0.47536,-1.04672 -0.49267,-3.06177 -0.49686,-57.83763 -0.003,-36.44784 0.0889,-57.08864 0.25619,-57.6909 0.32424,-1.16715 1.72767,-2.55915 2.92693,-2.9031 0.51131,-0.14664 4.6732,-0.26016 9.53784,-0.26016 h 8.6307 l 0.33018,-1.55589 c 0.48204,-2.27148 1.25386,-3.49737 2.64355,-4.1988 1.1431,-0.57696 1.4183,-0.59531 8.9286,-0.59531 h 7.74914 l 0.003,-0.8599 c 0.003,-1.1371 1.14223,-3.5502 2.19628,-4.65383 0.46411,-0.48594 1.43915,-1.19864 2.16676,-1.58379 1.13088,-0.59862 1.64936,-0.70026 3.57187,-0.70026 1.92251,0 2.44099,0.10164 3.57188,0.70026 0.7276,0.38515 1.702637,1.09785 2.166748,1.58379 1.054052,1.10363 2.192869,3.51673 2.196287,4.65383 l 0.0025,0.8599 h 7.749145 c 7.510295,0 7.785499,0.0183 8.928597,0.59531 1.389692,0.70143 2.161508,1.92732 2.64355,4.1988 l 0.330181,1.55589 h 8.630698 c 4.864642,0 9.026532,0.11352 9.537834,0.26016 1.199264,0.34395 2.602693,1.73595 2.926937,2.9031 0.167312,0.60226 0.258969,21.24306 0.256186,57.6909 -0.0042,54.77586 -0.02148,56.79091 -0.496859,57.83763 -0.270888,0.59648 -0.893352,1.37039 -1.383252,1.7198 l -0.890728,0.63528 -45.905214,0.0464 c -25.24785,0.0255 -46.08379,-0.0212 -46.30207,-0.10387 z m 86.87793,-11.22614 c 0.22111,-2.11545 0.218766,-100.34338 -0.0024,-102.68567 l -0.168738,-1.78593 h -5.932693 c -5.526286,0 -5.923256,0.0317 -5.794912,0.46302 0.163981,0.55105 0.956209,4.01721 0.956209,4.1836 0,0.0637 -13.454062,0.11588 -29.897916,0.11588 -16.44385,0 -29.89792,-0.0521 -29.89792,-0.11588 0,-0.16639 0.79223,-3.63255 0.95621,-4.1836 0.12835,-0.43131 -0.26862,-0.46302 -5.79491,-0.46302 h -5.93269 l -0.16867,1.78593 c -0.22122,2.34229 -0.22356,100.57022 -0.002,102.68567 l 0.16991,1.62631 h 40.67045 40.67045 z m -76.11821,-7.28133 c -0.097,-0.097 -0.17638,-4.91905 -0.17638,-10.71563 v -10.53923 h 10.68139 10.68139 l 0.12734,10.51719 c 0.07,5.78445 0.0784,10.60648 0.0186,10.71562 -0.13433,0.24515 -21.0876,0.26681 -21.33236,0.022 z m 25.66459,-16.40417 c -0.097,-0.097 -0.17639,-0.93045 -0.17639,-1.85208 v -1.67569 h 7.67291 7.67292 v 1.85208 1.85208 h -7.49653 c -4.12309,0 -7.5759,-0.0794 -7.67291,-0.17639 z m -25.72012,-15.76529 c -0.0699,-0.1822 -0.0959,-5.03399 -0.0578,-10.78177 l 0.0693,-10.4505 10.61407,-0.0691 10.61407,-0.0691 0.13072,10.65245 c 0.0719,5.85885 0.0808,10.74175 0.0198,10.85089 -0.061,0.10914 -4.87014,0.19844 -10.68695,0.19844 -8.22586,0 -10.60427,-0.0736 -10.70314,-0.33127 z m 25.72409,-16.24531 c -0.0992,-0.0992 -0.18036,-0.93443 -0.18036,-1.85606 v -1.6757 h 7.81729 7.817301 l -0.07824,1.78594 -0.07823,1.78594 -7.558691,0.0701 c -4.15729,0.0386 -7.63986,-0.011 -7.73907,-0.11024 z m -25.7818,-26.35207 0.0692,-10.64948 h 10.71562 10.71563 l 0.0691,10.64948 0.0692,10.64948 h -10.85392 -10.85392 z m 25.60144,-7.47448 v -1.71979 h 7.67291 7.67292 v 1.71979 1.71979 h -7.67292 -7.67291 z m 11.62535,-23.36992 c 0.49581,-0.2659 1.11903,-0.88912 1.38493,-1.38493 1.778149,-3.31555 -1.74092,-6.83462 -5.05647,-5.05647 -3.26574,1.75144 -1.89428,6.92487 1.83577,6.92487 0.51386,0 1.33996,-0.21756 1.83577,-0.48347 z"
         id="path4016"
         inkscape:connector-curvature="0" />
      <path
         style="fill:#a3d8de;stroke-width:0.26458332"
         d="m -150.50436,378.72426 c -0.96264,-0.4193 -2.15854,-1.77375 -2.43435,-2.75709 -0.1091,-0.38896 -0.19836,-26.30564 -0.19836,-57.59262 0,-56.36194 0.005,-56.895 0.52916,-57.92667 0.29105,-0.5727 0.86509,-1.28707 1.27567,-1.5875 0.71183,-0.52088 1.17839,-0.55239 10.04803,-0.67854 l 9.30154,-0.13229 0.19535,-0.66146 c 0.10745,-0.3638 0.39641,-1.35246 0.64214,-2.19702 0.52863,-1.8169 1.91977,-3.19698 3.48311,-3.45543 0.54083,-0.0894 4.21229,-0.16387 8.1588,-0.16547 l 7.17547,-0.003 0.30042,-1.52698 c 0.82685,-4.2028 5.10848,-7.06224 9.22728,-6.16233 3.161814,0.69082 5.582694,3.10299 6.184584,6.16233 l 0.300413,1.52698 7.175473,0.003 c 3.946509,0.002 7.617968,0.0761 8.158797,0.16548 1.563344,0.25844 2.954483,1.63852 3.483118,3.45542 0.245729,0.84456 0.534688,1.83322 0.642133,2.19702 l 0.195355,0.66146 9.301538,0.13229 c 8.869634,0.12615 9.336201,0.15766 10.048033,0.67854 0.410572,0.30043 0.98462,1.0148 1.275662,1.5875 0.524298,1.03167 0.529167,1.56473 0.529167,57.92667 0,31.28698 -0.08926,57.20366 -0.198361,57.59263 -0.28403,1.01265 -1.486276,2.3478 -2.492767,2.76834 -1.266684,0.52926 -91.091625,0.5183 -92.307405,-0.0113 z m 87.127824,-62.40023 -0.06679,-53.2474 -6.053894,-0.0712 -6.053896,-0.0712 0.172688,0.99724 c 0.09498,0.54849 0.337944,1.68186 0.539924,2.5186 l 0.367239,1.52136 h -29.891885 c -28.34626,0 -29.88452,-0.024 -29.74961,-0.46303 0.26371,-0.85833 0.94387,-3.89974 0.94782,-4.2383 0.003,-0.26354 -1.28986,-0.32041 -6.01536,-0.26458 l -6.01927,0.0711 -0.0668,53.2474 -0.0668,53.24739 h 41.01171 41.011707 z m -76.222694,44.07517 c -0.097,-0.097 -0.17638,-4.91905 -0.17638,-10.71563 v -10.53923 h 10.68139 10.68139 l 0.12734,10.51719 c 0.07,5.78445 0.0784,10.60648 0.0186,10.71562 -0.13433,0.24515 -21.0876,0.26681 -21.33236,0.022 z m 25.66459,-16.40417 c -0.097,-0.097 -0.17639,-0.93045 -0.17639,-1.85208 v -1.67569 h 7.67291 7.67292 v 1.85208 1.85208 h -7.49653 c -4.12309,0 -7.5759,-0.0794 -7.67291,-0.17639 z m -25.57639,-26.28194 v -10.58333 h 10.58333 10.58333 v 10.58333 10.58333 h -10.58333 -10.58333 z m 25.66458,-7.54062 v -1.7198 h 7.54063 7.54062 v 1.7198 1.71979 h -7.54062 -7.54063 z m -25.86602,-24.54011 0.0692,-10.64948 h 10.71562 10.71563 l 0.0691,10.64948 0.0692,10.64948 h -10.85392 -10.85392 z m 25.60144,-7.47448 v -1.71979 h 7.67291 7.67292 v 1.71979 1.71979 h -7.67292 -7.67291 z m 11.76459,-23.39041 c 1.64513,-0.92453 2.27108,-3.23685 1.35552,-5.00736 -0.60818,-1.17608 -1.87175,-1.89504 -3.33053,-1.89504 -4.30135,0 -5.26006,5.8515 -1.19062,7.26699 1.1582,0.40286 1.96545,0.30988 3.16563,-0.36459 z"
         id="path4014"
         inkscape:connector-curvature="0" />
      <path
         style="fill:#fad261;stroke-width:0.26458332"
         d="m -150.50436,378.72426 c -0.96264,-0.4193 -2.15854,-1.77375 -2.43435,-2.75709 -0.1091,-0.38896 -0.19836,-26.30564 -0.19836,-57.59262 0,-56.36194 0.005,-56.895 0.52916,-57.92667 0.29105,-0.5727 0.86509,-1.28707 1.27567,-1.5875 0.71183,-0.52088 1.17839,-0.55239 10.04803,-0.67854 l 9.30154,-0.13229 0.19535,-0.66146 c 0.10745,-0.3638 0.39641,-1.35246 0.64214,-2.19702 0.52863,-1.8169 1.91977,-3.19698 3.48311,-3.45543 0.54083,-0.0894 4.21229,-0.16387 8.1588,-0.16547 l 7.17547,-0.003 0.30042,-1.52698 c 0.82685,-4.2028 5.10848,-7.06224 9.22728,-6.16233 3.161814,0.69082 5.582694,3.10299 6.184584,6.16233 l 0.300413,1.52698 7.175473,0.003 c 3.946509,0.002 7.617968,0.0761 8.158797,0.16548 1.563344,0.25844 2.954483,1.63852 3.483118,3.45542 0.245729,0.84456 0.534688,1.83322 0.642133,2.19702 l 0.195355,0.66146 9.301538,0.13229 c 8.869634,0.12615 9.336201,0.15766 10.048033,0.67854 0.410572,0.30043 0.98462,1.0148 1.275662,1.5875 0.524298,1.03167 0.529167,1.56473 0.529167,57.92667 0,31.28698 -0.08926,57.20366 -0.198361,57.59263 -0.28403,1.01265 -1.486276,2.3478 -2.492767,2.76834 -1.266684,0.52926 -91.091625,0.5183 -92.307405,-0.0113 z m 87.127824,-62.40023 -0.06679,-53.2474 -6.053894,-0.0712 -6.053896,-0.0712 0.172688,0.99724 c 0.09498,0.54849 0.337944,1.68186 0.539924,2.5186 l 0.367239,1.52136 h -29.891885 c -28.34626,0 -29.88452,-0.024 -29.74961,-0.46303 0.26371,-0.85833 0.94387,-3.89974 0.94782,-4.2383 0.003,-0.26354 -1.28986,-0.32041 -6.01536,-0.26458 l -6.01927,0.0711 -0.0668,53.2474 -0.0668,53.24739 h 41.01171 41.011707 z m -76.134494,33.40364 v -10.58333 h 10.58333 10.58333 v 10.58333 10.58333 h -10.58333 -10.58333 z m 25.66458,-7.54062 v -1.71979 h 7.54063 7.54062 v 1.71979 1.71979 h -7.54062 -7.54063 z m -25.66458,-24.47396 v -10.58333 h 10.58333 10.58333 v 10.58333 10.58333 h -10.58333 -10.58333 z m 25.66458,-7.54062 v -1.7198 h 7.54063 7.54062 v 1.7198 1.71979 h -7.54062 -7.54063 z m -25.66458,-24.47396 v -10.58333 h 10.58333 10.58333 v 10.58333 10.58333 h -10.58333 -10.58333 z m 25.66458,-7.54063 v -1.71979 h 7.54063 7.54062 v 1.71979 1.71979 h -7.54062 -7.54063 z m 11.50001,-23.39041 c 1.64513,-0.92453 2.27108,-3.23685 1.35552,-5.00736 -0.60818,-1.17608 -1.87175,-1.89504 -3.33053,-1.89504 -4.30135,0 -5.26006,5.8515 -1.19062,7.26699 1.1582,0.40286 1.96545,0.30988 3.16563,-0.36459 z"
         id="path4012"
         inkscape:connector-curvature="0" />
      <path
         style="fill:#f5c257;stroke-width:0.26458332"
         d="m -150.50436,378.72426 c -0.96264,-0.4193 -2.15854,-1.77375 -2.43435,-2.75709 -0.1091,-0.38896 -0.19836,-26.30564 -0.19836,-57.59262 v -56.88542 l 0.6265,-1.09328 c 0.34526,-0.6025 1.07408,-1.34485 1.62352,-1.65365 0.96129,-0.54027 1.32004,-0.56036 10.00967,-0.56036 h 9.01263 l 0.30245,-1.52135 c 0.41332,-2.07904 0.99602,-3.17869 2.19564,-4.14356 l 1.01626,-0.81738 8.01469,-0.0834 8.0147,-0.0834 0.29702,-1.50973 c 0.5983,-3.04112 3.0274,-5.45603 6.18119,-6.14509 4.11033,-0.89806 8.400553,1.96015 9.223889,6.14509 l 0.297024,1.50973 8.014694,0.0834 8.014695,0.0834 1.016254,0.81738 c 1.199621,0.96487 1.78232,2.06452 2.195639,4.14356 l 0.302451,1.52135 h 9.012639 c 8.689628,0 9.048371,0.0201 10.00966,0.56036 0.549442,0.3088 1.278269,1.05115 1.623523,1.65365 l 0.626505,1.09328 v 56.88542 c 0,31.28698 -0.08926,57.20366 -0.198361,57.59262 -0.28403,1.01265 -1.486276,2.34781 -2.492767,2.76835 -1.266684,0.52926 -91.091625,0.5183 -92.307405,-0.0113 z m 87.193325,-62.46638 v -53.31354 h -6.119233 -6.119233 l 0.171879,0.99219 c 0.09453,0.5457 0.337137,1.6768 0.539117,2.51354 l 0.367239,1.52136 h -29.874054 c -16.43072,0 -29.87201,-0.0298 -29.86951,-0.0661 0.002,-0.0364 0.23858,-0.95911 0.52463,-2.05052 0.84363,-3.21877 1.4323,-2.91042 -5.55625,-2.91042 h -6.08541 v 53.31354 53.31354 h 41.01041 41.010415 z m -76.199995,33.46979 v -10.58333 h 10.58333 10.58333 v 10.58333 10.58333 h -10.58333 -10.58333 z m 25.66458,-7.54062 v -1.71979 h 7.54063 7.54062 v 1.71979 1.71979 h -7.54062 -7.54063 z m -25.66458,-15.875 v -1.98438 h 10.58333 10.58333 v 1.98438 1.98437 h -10.58333 -10.58333 z m 25.66458,-16.13958 v -1.7198 h 7.54063 7.54062 v 1.7198 1.71979 h -7.54062 -7.54063 z m -25.66458,-24.47396 v -10.58333 h 10.58333 10.58333 v 10.58333 10.58333 h -10.58333 -10.58333 z m 25.66458,-7.54063 v -1.71979 h 7.54063 7.54062 v 1.71979 1.71979 h -7.54062 -7.54063 z m 11.50001,-23.39041 c 1.64513,-0.92453 2.27108,-3.23685 1.35552,-5.00736 -0.60818,-1.17608 -1.87175,-1.89504 -3.33053,-1.89504 -4.30135,0 -5.26006,5.8515 -1.19062,7.26699 1.1582,0.40286 1.96545,0.30988 3.16563,-0.36459 z"
         id="path4010"
         inkscape:connector-curvature="0" />
      <path
         style="fill:#dc8945;stroke-width:0.26458332"
         d="m -150.19509,378.82425 c -1.61411,-0.48651 -2.80969,-2.18312 -2.80969,-3.98715 v -1.1106 l 0.59621,0.88472 c 0.32792,0.48659 1.01253,1.12928 1.52135,1.42819 0.9236,0.54256 1.00136,0.54347 46.56577,0.54347 45.564415,0 45.642168,-8e-4 46.565765,-0.54347 0.508828,-0.29891 1.193437,-0.9416 1.521354,-1.42819 l 0.596212,-0.88472 v 1.19062 c 0,1.32287 -0.691989,2.57054 -1.937599,3.49351 l -0.746972,0.5535 -45.55511,0.0449 c -25.15217,0.0248 -45.89647,-0.058 -46.31729,-0.18481 z m 10.68406,-29.09658 v -10.58333 h 10.58333 10.58333 v 10.58333 10.58333 h -10.58333 -10.58333 z m 25.66458,-7.54062 v -1.71979 h 7.54063 7.54062 v 1.71979 1.71979 h -7.54062 -7.54063 z m 0,-32.01458 v -1.7198 h 7.54063 7.54062 v 1.7198 1.71979 h -7.54062 -7.54063 z m -25.66458,-24.47396 v -10.58333 h 10.58333 10.58333 v 10.58333 10.58333 h -10.58333 -10.58333 z m 25.66458,-7.54063 v -1.71979 h 7.54063 7.54062 v 1.71979 1.71979 h -7.54062 -7.54063 z m -19.6637,-13.03073 c 1.21343,-5.59892 2.49669,-10.52117 2.94044,-11.27876 0.60457,-1.03213 1.59489,-1.73598 2.85311,-2.0278 0.57082,-0.13239 4.26958,-0.24355 8.21945,-0.24702 7.76088,-0.007 7.49879,0.0427 7.50537,-1.41701 0.004,-0.96418 1.19976,-3.1647 2.28089,-4.19864 3.01242,-2.88095 7.76646,-2.88095 10.778878,0 1.08113,1.03394 2.276549,3.23446 2.280893,4.19864 0.0066,1.45967 -0.255516,1.41019 7.505372,1.41701 3.949872,0.003 7.648622,0.11463 8.219445,0.24702 1.258223,0.29182 2.24854,0.99567 2.85311,2.0278 0.443757,0.75759 1.727012,5.67984 2.940439,11.27876 l 0.616421,2.84428 h -29.805118 -29.80512 z m 30.42825,-9.87256 c 2.69097,-1.01672 3.477426,-4.48117 1.45673,-6.41712 -1.51528,-1.45174 -3.66502,-1.50149 -5.23707,-0.12121 -3.1111,2.73158 -0.0692,7.99278 3.78034,6.53833 z"
         id="path4008"
         inkscape:connector-curvature="0" />
      <path
         style="fill:#43c2a0;stroke-width:0.26458332"
         d="m -139.51103,349.72767 v -10.58333 h 10.58333 10.58333 v 10.58333 10.58333 h -10.58333 -10.58333 z m 25.66458,-7.54062 v -1.71979 h 7.54063 7.54062 v 1.71979 1.71979 h -7.54062 -7.54063 z m 0,-32.01458 v -1.7198 h 7.54063 7.54062 v 1.7198 1.71979 h -7.54062 -7.54063 z m -25.66458,-24.47396 v -10.58333 h 10.58333 10.58333 v 10.58333 10.58333 h -10.58333 -10.58333 z m 25.66458,-7.54063 v -1.71979 h 7.54063 7.54062 v 1.71979 1.71979 h -7.54062 -7.54063 z"
         id="path4006"
         inkscape:connector-curvature="0" />
      <path
         style="fill:#26a0d9;stroke-width:0.26458332"
         d="m -139.51103,358.32663 v -1.98438 h 10.58333 10.58333 v 1.98438 1.98437 h -10.58333 -10.58333 z m 25.66458,-16.13958 v -1.71979 h 7.54063 7.54062 v 1.71979 1.71979 h -7.54062 -7.54063 z m 0,-32.01458 v -1.7198 h 7.54063 7.54062 v 1.7198 1.71979 h -7.54062 -7.54063 z m -25.66458,-24.47396 v -10.58333 h 10.58333 10.58333 v 10.58333 10.58333 h -10.58333 -10.58333 z"
         id="path4004"
         inkscape:connector-curvature="0" />
      <path
         style="fill:#e46252;stroke-width:0.26458332"
         d="m -139.51103,358.32663 v -1.98438 h 10.58333 10.58333 v 1.98438 1.98437 h -10.58333 -10.58333 z m 25.66458,-48.15416 v -1.7198 h 7.54063 7.54062 v 1.7198 1.71979 h -7.54062 -7.54063 z m -25.66458,-15.875 v -1.98438 h 10.58333 10.58333 v 1.98438 1.98437 h -10.58333 -10.58333 z"
         id="path4002"
         inkscape:connector-curvature="0" />
      <path
         style="fill:#349ba9;stroke-width:0.26458332"
         d="m -139.51103,358.32663 v -1.98438 h 10.58333 10.58333 v 1.98438 1.98437 h -10.58333 -10.58333 z m 0,-64.02916 v -1.98438 h 10.58333 10.58333 v 1.98438 1.98437 h -10.58333 -10.58333 z"
         id="path4000"
         inkscape:connector-curvature="0" />
    </g>
  </g>
</svg>
